<svg id="Layer_1" data-name="Layer 1" xmlns="http://www.w3.org/2000/svg" viewBox="0 0 188.76 144.98"><defs><style>.cls-1{fill:#eeeded;stroke:#e20e18;stroke-miterlimit:10;stroke-width:5px;}</style></defs><path class="cls-1" d="M36.87,20.45H7.67A5.19,5.19,0,0,1,2.5,15.27V7.67A5.18,5.18,0,0,1,7.67,2.5h29.2a5.18,5.18,0,0,1,5.18,5.17v7.6A5.19,5.19,0,0,1,36.87,20.45ZM7.67,6A1.72,1.72,0,0,0,6,7.67v7.6A1.73,1.73,0,0,0,7.67,17h29.2a1.74,1.74,0,0,0,1.73-1.73V7.67A1.73,1.73,0,0,0,36.87,6Z"/><path class="cls-1" d="M180.84,111.78H59a1.73,1.73,0,0,1-1.71-1.5L44.6,15.14H42.41a1.73,1.73,0,0,1,0-3.45h3.7a1.73,1.73,0,0,1,1.71,1.5l12.73,95.14H180.84a1.73,1.73,0,0,1,0,3.45Z"/><path class="cls-1" d="M170.61,88.19H56.91a1.73,1.73,0,1,1,0-3.45H169.23l13.15-58.51H47.81a1.73,1.73,0,0,1,0-3.45H184.53a1.72,1.72,0,0,1,1.69,2.1l-13.93,62A1.73,1.73,0,0,1,170.61,88.19Z"/><path class="cls-1" d="M80.7,72.84H77.17a9.49,9.49,0,0,1-9.48-9.48V43.06a9.49,9.49,0,0,1,9.48-9.48H80.7a9.49,9.49,0,0,1,9.48,9.48v20.3A9.49,9.49,0,0,1,80.7,72.84ZM77.17,37a6,6,0,0,0-6,6v20.3a6,6,0,0,0,6,6H80.7a6,6,0,0,0,6-6V43.06a6,6,0,0,0-6-6Z"/><path class="cls-1" d="M118.22,72.84h-3.53a9.49,9.49,0,0,1-9.48-9.48V43.06a9.49,9.49,0,0,1,9.48-9.48h3.53a9.49,9.49,0,0,1,9.48,9.48v20.3A9.49,9.49,0,0,1,118.22,72.84ZM114.69,37a6,6,0,0,0-6,6v20.3a6,6,0,0,0,6,6h3.53a6,6,0,0,0,6-6V43.06a6,6,0,0,0-6-6Z"/><path class="cls-1" d="M155.74,72.84h-3.52a9.5,9.5,0,0,1-9.49-9.48V43.06a9.5,9.5,0,0,1,9.49-9.48h3.52a9.49,9.49,0,0,1,9.48,9.48v20.3A9.49,9.49,0,0,1,155.74,72.84ZM152.22,37a6,6,0,0,0-6,6v20.3a6,6,0,0,0,6,6h3.52a6,6,0,0,0,6-6V43.06a6,6,0,0,0-6-6Z"/><path class="cls-1" d="M89,142.48a16.22,16.22,0,1,1,16.22-16.22A16.23,16.23,0,0,1,89,142.48Zm0-29a12.78,12.78,0,1,0,12.77,12.77A12.79,12.79,0,0,0,89,113.49Z"/><path class="cls-1" d="M143.6,142.48a16.22,16.22,0,1,1,16.22-16.22A16.24,16.24,0,0,1,143.6,142.48Zm0-29a12.78,12.78,0,1,0,12.77,12.77A12.79,12.79,0,0,0,143.6,113.49Z"/></svg>